<?xml version="1.0" encoding="UTF-8"?>
<svg xmlns="http://www.w3.org/2000/svg" xmlns:xlink="http://www.w3.org/1999/xlink" viewBox="0 0 80 80" width="80px" height="80px">
<g id="surface116026648">
<path style=" stroke:none;fill-rule:nonzero;fill:rgb(20.392157%,59.607846%,85.882354%);fill-opacity:1;" d="M 35.351562 77 L 33.101562 67.996094 L 32.535156 67.847656 C 27.617188 66.53125 23.140625 63.953125 19.589844 60.398438 L 19.171875 59.980469 L 10.28125 62.523438 L 5.632812 54.472656 L 12.304688 48.023438 L 12.152344 47.457031 C 11.480469 44.949219 11.140625 42.441406 11.140625 40 C 11.140625 37.558594 11.480469 35.050781 12.148438 32.542969 L 12.300781 31.972656 L 5.632812 25.523438 L 10.28125 17.472656 L 19.171875 20.015625 L 19.585938 19.601562 C 23.140625 16.042969 27.617188 13.46875 32.53125 12.152344 L 33.101562 12 L 35.351562 3 L 44.644531 3 L 46.894531 12.003906 L 47.464844 12.152344 C 52.378906 13.46875 56.855469 16.042969 60.410156 19.601562 L 60.824219 20.019531 L 69.714844 17.476562 L 74.363281 25.527344 L 67.695312 31.976562 L 67.847656 32.542969 C 68.515625 35.050781 68.855469 37.558594 68.855469 40 C 68.855469 42.441406 68.515625 44.949219 67.847656 47.457031 L 67.695312 48.027344 L 74.367188 54.472656 L 69.71875 62.527344 L 60.828125 59.980469 L 60.410156 60.398438 C 56.859375 63.957031 52.378906 66.53125 47.464844 67.847656 L 46.898438 67.996094 L 44.648438 77 Z M 40 24.070312 C 31.214844 24.070312 24.070312 31.21875 24.070312 40 C 24.070312 48.78125 31.21875 55.929688 40 55.929688 C 48.78125 55.929688 55.929688 48.78125 55.929688 40 C 55.929688 31.21875 48.785156 24.070312 40 24.070312 Z M 40 24.070312 "/>
<path style=" stroke:none;fill-rule:nonzero;fill:rgb(78.431374%,89.019608%,94.509804%);fill-opacity:1;" d="M 43.867188 4 L 45.785156 11.675781 L 46.070312 12.816406 L 47.207031 13.121094 C 51.953125 14.390625 56.273438 16.875 59.703125 20.308594 L 60.535156 21.140625 L 61.667969 20.816406 L 69.242188 18.652344 L 73.109375 25.351562 L 67.425781 30.847656 L 66.578125 31.664062 L 66.882812 32.800781 C 67.53125 35.222656 67.859375 37.644531 67.859375 40 C 67.859375 42.355469 67.53125 44.777344 66.882812 47.199219 L 66.578125 48.335938 L 67.425781 49.152344 L 73.109375 54.648438 L 69.242188 61.347656 L 61.667969 59.183594 L 60.535156 58.859375 L 59.703125 59.691406 C 56.273438 63.125 51.953125 65.609375 47.207031 66.878906 L 46.070312 67.183594 L 45.785156 68.324219 L 43.867188 76 L 36.132812 76 L 34.214844 68.324219 L 33.929688 67.183594 L 32.792969 66.878906 C 28.046875 65.609375 23.726562 63.125 20.296875 59.691406 L 19.464844 58.859375 L 18.332031 59.183594 L 10.757812 61.347656 L 6.890625 54.648438 L 12.574219 49.152344 L 13.421875 48.335938 L 13.117188 47.199219 C 12.46875 44.777344 12.140625 42.355469 12.140625 40 C 12.140625 37.644531 12.46875 35.222656 13.117188 32.800781 L 13.421875 31.664062 L 12.574219 30.847656 L 6.890625 25.351562 L 10.757812 18.652344 L 18.332031 20.816406 L 19.464844 21.140625 L 20.296875 20.308594 C 23.726562 16.875 28.046875 14.390625 32.792969 13.121094 L 33.929688 12.816406 L 34.214844 11.675781 L 36.132812 4 L 43.867188 4 M 40 56.929688 C 49.335938 56.929688 56.929688 49.335938 56.929688 40 C 56.929688 30.664062 49.335938 23.070312 40 23.070312 C 30.664062 23.070312 23.070312 30.664062 23.070312 40 C 23.070312 49.335938 30.664062 56.929688 40 56.929688 M 45.429688 2 L 34.570312 2 L 32.273438 11.1875 C 27.132812 12.5625 22.53125 15.242188 18.878906 18.894531 L 9.804688 16.296875 L 4.378906 25.699219 L 11.1875 32.285156 C 10.527344 34.75 10.140625 37.328125 10.140625 40 C 10.140625 42.671875 10.527344 45.25 11.1875 47.714844 L 4.375 54.296875 L 9.804688 63.699219 L 18.878906 61.105469 C 22.53125 64.757812 27.136719 67.433594 32.273438 68.808594 L 34.570312 78 L 45.429688 78 L 47.726562 68.8125 C 52.863281 67.4375 57.46875 64.757812 61.121094 61.105469 L 70.195312 63.703125 L 75.625 54.300781 L 68.8125 47.714844 C 69.472656 45.253906 69.859375 42.675781 69.859375 40.003906 C 69.859375 37.328125 69.472656 34.753906 68.8125 32.289062 L 75.625 25.703125 L 70.195312 16.300781 L 61.121094 18.898438 C 57.46875 15.246094 52.867188 12.566406 47.726562 11.191406 Z M 40 54.929688 C 31.757812 54.929688 25.070312 48.242188 25.070312 40 C 25.070312 31.757812 31.757812 25.070312 40 25.070312 C 48.242188 25.070312 54.929688 31.757812 54.929688 40 C 54.929688 48.242188 48.242188 54.929688 40 54.929688 Z M 40 54.929688 "/>
<path style=" stroke:none;fill-rule:nonzero;fill:rgb(93.333334%,92.156863%,96.862745%);fill-opacity:1;" d="M 40 61 C 28.421875 61 19 51.578125 19 40 C 19 28.421875 28.421875 19 40 19 C 51.578125 19 61 28.421875 61 40 C 61 51.578125 51.578125 61 40 61 Z M 40 31 C 35.039062 31 31 35.039062 31 40 C 31 44.960938 35.039062 49 40 49 C 44.960938 49 49 44.960938 49 40 C 49 35.039062 44.960938 31 40 31 Z M 40 31 "/>
<path style=" stroke:none;fill-rule:nonzero;fill:rgb(78.431374%,89.019608%,94.509804%);fill-opacity:1;" d="M 40 20 C 51.027344 20 60 28.972656 60 40 C 60 51.027344 51.027344 60 40 60 C 28.972656 60 20 51.027344 20 40 C 20 28.972656 28.972656 20 40 20 M 40 50 C 45.515625 50 50 45.515625 50 40 C 50 34.484375 45.515625 30 40 30 C 34.484375 30 30 34.484375 30 40 C 30 45.515625 34.484375 50 40 50 M 40 18 C 27.851562 18 18 27.851562 18 40 C 18 52.148438 27.851562 62 40 62 C 52.148438 62 62 52.148438 62 40 C 62 27.851562 52.148438 18 40 18 Z M 40 48 C 35.582031 48 32 44.417969 32 40 C 32 35.582031 35.582031 32 40 32 C 44.417969 32 48 35.582031 48 40 C 48 44.417969 44.417969 48 40 48 Z M 40 48 "/>
</g>
</svg>
